<svg id="图层_1" data-name="图层 1" xmlns="http://www.w3.org/2000/svg" xmlns:xlink="http://www.w3.org/1999/xlink" viewBox="0 0 266 176"><defs><style>.cls-1{fill:none;}.cls-2{clip-path:url(#clip-path);}.cls-3{stroke:#773540;stroke-miterlimit:10;fill:url(#未命名的渐变_686);}.cls-4{opacity:0.07;}.cls-5{clip-path:url(#clip-path-2);}.cls-6{clip-path:url(#clip-path-3);}.cls-7{fill:#b12337;}.cls-8{clip-path:url(#clip-path-4);}.cls-9{opacity:0.1;}.cls-10{clip-path:url(#clip-path-5);}.cls-11{clip-path:url(#clip-path-6);}.cls-12{fill:#300b0b;}.cls-13{clip-path:url(#clip-path-7);}.cls-14{clip-path:url(#clip-path-8);}.cls-15{clip-path:url(#clip-path-9);}.cls-16{clip-path:url(#clip-path-10);}.cls-17{clip-path:url(#clip-path-11);}.cls-18{fill:#962337;}.cls-19{clip-path:url(#clip-path-12);}.cls-20{clip-path:url(#clip-path-13);}.cls-21{clip-path:url(#clip-path-14);}.cls-22{clip-path:url(#clip-path-15);}.cls-23{clip-path:url(#clip-path-16);}.cls-24{clip-path:url(#clip-path-17);}.cls-25{clip-path:url(#clip-path-18);}.cls-26{clip-path:url(#clip-path-19);}.cls-27{clip-path:url(#clip-path-20);}.cls-28{clip-path:url(#clip-path-21);}.cls-29{clip-path:url(#clip-path-22);}.cls-30{clip-path:url(#clip-path-23);}.cls-31{clip-path:url(#clip-path-24);}.cls-32{clip-path:url(#clip-path-25);}.cls-33{clip-path:url(#clip-path-26);}.cls-34{clip-path:url(#clip-path-27);}.cls-35{clip-path:url(#clip-path-28);}.cls-36{clip-path:url(#clip-path-29);}.cls-37{fill:#bf4565;}</style><clipPath id="clip-path"><rect class="cls-1" x="78.17" y="-7.42" width="153.66" height="171.73"/></clipPath><linearGradient id="未命名的渐变_686" x1="86.33" y1="80.21" x2="227.07" y2="113.95" gradientUnits="userSpaceOnUse"><stop offset="0" stop-color="#ffffca"/><stop offset="0.16" stop-color="#f9b693"/><stop offset="0.31" stop-color="#f3735f"/><stop offset="0.39" stop-color="#f1584b"/><stop offset="0.44" stop-color="#f03844"/><stop offset="0.51" stop-color="#f01a3e"/><stop offset="0.56" stop-color="#ef073a"/><stop offset="0.6" stop-color="#ef0039"/><stop offset="0.64" stop-color="#ef0e44"/><stop offset="0.71" stop-color="#ef345f"/><stop offset="0.77" stop-color="#ef5476"/><stop offset="0.81" stop-color="#f15982"/><stop offset="0.87" stop-color="#f565a3"/><stop offset="0.96" stop-color="#fc79d8"/><stop offset="1" stop-color="#ff83f3"/></linearGradient><clipPath id="clip-path-2"><rect class="cls-1" x="103.95" y="32.92" width="120.07" height="131.4"/></clipPath><clipPath id="clip-path-3"><rect class="cls-1" x="146.03" y="74.03" width="27.42" height="27.42"/></clipPath><clipPath id="clip-path-4"><rect class="cls-1" x="146.03" y="72.95" width="24.2" height="25.6"/></clipPath><clipPath id="clip-path-5"><rect class="cls-1" x="180.74" y="56.68" width="19.39" height="19.39"/></clipPath><clipPath id="clip-path-6"><rect class="cls-1" x="180.74" y="56.68" width="17.97" height="17.74"/></clipPath><clipPath id="clip-path-7"><rect class="cls-1" x="157.96" y="36.07" width="13.36" height="13.36"/></clipPath><clipPath id="clip-path-8"><rect class="cls-1" x="157.96" y="36.07" width="12.44" height="12.29"/></clipPath><clipPath id="clip-path-9"><rect class="cls-1" x="105.9" y="96.81" width="19.39" height="19.39"/></clipPath><clipPath id="clip-path-10"><rect class="cls-1" x="105.9" y="96.81" width="17.97" height="17.74"/></clipPath><clipPath id="clip-path-11"><rect class="cls-1" x="135.18" y="117.42" width="19.39" height="19.39"/></clipPath><clipPath id="clip-path-12"><rect class="cls-1" x="135.18" y="117.42" width="17.97" height="17.74"/></clipPath><clipPath id="clip-path-13"><rect class="cls-1" x="176.4" y="123.93" width="19.39" height="19.39"/></clipPath><clipPath id="clip-path-14"><rect class="cls-1" x="176.4" y="123.93" width="17.97" height="17.74"/></clipPath><clipPath id="clip-path-15"><rect class="cls-1" x="197.01" y="91.39" width="12.02" height="12.02"/></clipPath><clipPath id="clip-path-16"><rect class="cls-1" x="197.01" y="91.39" width="11.21" height="11.08"/></clipPath><clipPath id="clip-path-17"><rect class="cls-1" x="122.17" y="51.26" width="12.02" height="12.02"/></clipPath><clipPath id="clip-path-18"><rect class="cls-1" x="122.17" y="51.26" width="11.21" height="11.08"/></clipPath><clipPath id="clip-path-19"><rect class="cls-1" x="98.31" y="67.53" width="7.34" height="7.34"/></clipPath><clipPath id="clip-path-20"><rect class="cls-1" x="98.31" y="67.53" width="6.92" height="6.85"/></clipPath><clipPath id="clip-path-21"><rect class="cls-1" x="212.19" y="108.74" width="7.34" height="7.34"/></clipPath><clipPath id="clip-path-22"><rect class="cls-1" x="212.19" y="108.74" width="6.92" height="6.85"/></clipPath><clipPath id="clip-path-23"><rect class="cls-1" x="208.94" y="75.12" width="7.34" height="7.34"/></clipPath><clipPath id="clip-path-24"><rect class="cls-1" x="208.94" y="75.12" width="6.92" height="6.85"/></clipPath><clipPath id="clip-path-25"><rect class="cls-1" x="109.15" y="125.01" width="7.34" height="7.34"/></clipPath><clipPath id="clip-path-26"><rect class="cls-1" x="109.15" y="125.01" width="6.92" height="6.85"/></clipPath><clipPath id="clip-path-27"><rect class="cls-1" x="133.01" y="143.45" width="7.34" height="7.34"/></clipPath><clipPath id="clip-path-28"><rect class="cls-1" x="133.01" y="143.45" width="6.92" height="6.85"/></clipPath><clipPath id="clip-path-29"><rect class="cls-1" x="22.91" y="-28.87" width="212.67" height="234.22" transform="translate(8.09 187.29) rotate(-73.59)"/></clipPath></defs><title>doge</title><g class="cls-2"><circle class="cls-3" cx="156.98" cy="97.15" r="66.09"/><g class="cls-4"><g class="cls-5"><path d="M177.16,34A66.25,66.25,0,0,1,105,138.43,66.23,66.23,0,1,0,177.16,34Z"/></g></g><g class="cls-6"><path class="cls-7" d="M172.36,87.74a12.63,12.63,0,1,1-12.62-12.62A12.62,12.62,0,0,1,172.36,87.74Z"/></g><g class="cls-8"><path class="cls-9" d="M150,89.06a12.61,12.61,0,0,1,19.13-10.81,12.61,12.61,0,1,0-15.91,19.21A12.54,12.54,0,0,1,150,89.06Z"/></g><g class="cls-10"><circle class="cls-7" cx="190.43" cy="66.37" r="8.61" transform="translate(-0.99 2.92) rotate(-0.88)"/></g><g class="cls-11"><path class="cls-12" d="M192.56,60a8.59,8.59,0,0,1,5.06,1.64,8.61,8.61,0,1,0-12.25,11.7A8.6,8.6,0,0,1,192.56,60Z"/></g><g class="cls-13"><path class="cls-7" d="M170.24,42.75a5.6,5.6,0,1,1-5.6-5.59A5.6,5.6,0,0,1,170.24,42.75Z"/></g><g class="cls-14"><path class="cls-12" d="M166,38.61a5.6,5.6,0,0,1,3.29,1.07,5.6,5.6,0,1,0-8,7.6A5.6,5.6,0,0,1,166,38.61Z"/></g><g class="cls-15"><circle class="cls-7" cx="115.59" cy="106.5" r="8.61"/></g><g class="cls-16"><path class="cls-12" d="M117.72,100.13a8.59,8.59,0,0,1,5.06,1.64,8.61,8.61,0,1,0-12.25,11.7,8.6,8.6,0,0,1,7.19-13.34Z"/></g><g class="cls-17"><circle class="cls-18" cx="144.88" cy="127.11" r="8.61" transform="translate(-1 1.15) rotate(-0.45)"/></g><g class="cls-19"><path class="cls-7" d="M147,120.74a8.59,8.59,0,0,1,5.06,1.64,8.61,8.61,0,1,0-12.26,11.69,8.61,8.61,0,0,1,7.2-13.33Z"/></g><g class="cls-20"><path class="cls-7" d="M194.7,133.62a8.61,8.61,0,1,1-8.61-8.61A8.61,8.61,0,0,1,194.7,133.62Z"/></g><g class="cls-21"><path class="cls-12" d="M188.22,127.24a8.53,8.53,0,0,1,5.06,1.65A8.61,8.61,0,1,0,181,140.58a8.6,8.6,0,0,1,7.19-13.34Z"/></g><g class="cls-22"><path class="cls-7" d="M207.94,97.4A4.93,4.93,0,1,1,203,92.47,4.93,4.93,0,0,1,207.94,97.4Z"/></g><g class="cls-23"><path class="cls-12" d="M204.24,93.75a4.9,4.9,0,0,1,2.89.94,4.92,4.92,0,1,0-7,6.69,4.88,4.88,0,0,1-.81-2.7A4.93,4.93,0,0,1,204.24,93.75Z"/></g><g class="cls-24"><path class="cls-18" d="M133.11,57.27a4.93,4.93,0,1,1-4.93-4.93A4.93,4.93,0,0,1,133.11,57.27Z"/></g><g class="cls-25"><path class="cls-12" d="M129.4,53.62a5,5,0,0,1,2.9.94,4.93,4.93,0,0,0-9.05,2.71,4.9,4.9,0,0,0,2,4,4.88,4.88,0,0,1-.81-2.7A4.93,4.93,0,0,1,129.4,53.62Z"/></g><g class="cls-26"><path class="cls-18" d="M104.57,71.2A2.59,2.59,0,1,1,102,68.61,2.59,2.59,0,0,1,104.57,71.2Z"/></g><g class="cls-27"><path d="M102.62,69.28a2.59,2.59,0,0,1,1.52.5,2.59,2.59,0,1,0-3.68,3.51,2.58,2.58,0,0,1,2.16-4Z"/></g><g class="cls-28"><path class="cls-18" d="M218.45,112.41a2.59,2.59,0,1,1-2.59-2.58A2.59,2.59,0,0,1,218.45,112.41Z"/></g><g class="cls-29"><path d="M216.5,110.5A2.56,2.56,0,0,1,218,111a2.58,2.58,0,0,0-4.74,1.42,2.61,2.61,0,0,0,1.06,2.1,2.59,2.59,0,0,1,2.16-4Z"/></g><g class="cls-30"><path class="cls-18" d="M215.2,78.79a2.59,2.59,0,1,1-2.59-2.59A2.59,2.59,0,0,1,215.2,78.79Z"/></g><g class="cls-31"><path d="M213.25,76.87a2.59,2.59,0,0,1,1.52.5,2.59,2.59,0,1,0-3.68,3.51,2.56,2.56,0,0,1-.43-1.42A2.59,2.59,0,0,1,213.25,76.87Z"/></g><g class="cls-32"><path class="cls-18" d="M115.41,128.68a2.59,2.59,0,1,1-2.59-2.58A2.59,2.59,0,0,1,115.41,128.68Z"/></g><g class="cls-33"><path d="M113.47,126.77a2.6,2.6,0,0,1,1.52.49,2.59,2.59,0,1,0-3.69,3.51,2.53,2.53,0,0,1-.42-1.42A2.58,2.58,0,0,1,113.47,126.77Z"/></g><g class="cls-34"><path class="cls-18" d="M139.27,147.12a2.59,2.59,0,1,1-2.58-2.59A2.58,2.58,0,0,1,139.27,147.12Z"/></g><g class="cls-35"><path d="M137.33,145.2a2.59,2.59,0,0,1,1.52.5,2.59,2.59,0,1,0-3.68,3.51,2.53,2.53,0,0,1-.43-1.42A2.59,2.59,0,0,1,137.33,145.2Z"/></g></g><g class="cls-36"><path class="cls-37" d="M253.12,77.85a1.41,1.41,0,1,0-.94-1.74A1.39,1.39,0,0,0,253.12,77.85Zm-17.85,7.58a1.73,1.73,0,0,0,2.17-1.16,1.75,1.75,0,1,0-3.36-1A1.73,1.73,0,0,0,235.27,85.43Zm-18,14.36a8.34,8.34,0,0,1,10.35-5.66A8.34,8.34,0,0,1,222,83.76a8.34,8.34,0,0,1-10.34,5.67A8.32,8.32,0,0,1,217.28,99.79ZM26.36,134.93a16.42,16.42,0,0,1,23.26-.39,16.55,16.55,0,0,1-.34-23.34,16.41,16.41,0,0,1-23.27.43A16.49,16.49,0,0,1,26.36,134.93Zm57.48,12.32a8.37,8.37,0,0,1,5.3-10.56,8.3,8.3,0,0,1-10.52-5.3A8.39,8.39,0,0,1,73.32,142,8.3,8.3,0,0,1,83.84,147.25Z"/></g></svg>